<?xml version="1.0" encoding="UTF-8"?>
<svg width="85px" height="87px" viewBox="0 0 85 87" version="1.1" xmlns="http://www.w3.org/2000/svg" xmlns:xlink="http://www.w3.org/1999/xlink">
    <!-- Generator: Sketch 44.1 (41455) - http://www.bohemiancoding.com/sketch -->
    <title>how-it-works-monthly</title>
    <desc>Created with Sketch.</desc>
    <defs>
        <path d="M18,26.0045058 C18,11.6426138 29.6356092,2.84217094e-14 43.9959112,2.84217094e-14 L43.9959112,2.84217094e-14 C58.3530565,2.84217094e-14 69.9918224,11.6331944 69.9918224,26.0045058 L69.9918224,58.1771716 L18,58.1771716 L18,26.0045058 Z" id="path-1"></path>
    </defs>
    <g id="Page-1" stroke="none" stroke-width="1" fill="none" fill-rule="evenodd">
        <g id="Main-V3" transform="translate(-354.000000, -4904.000000)">
            <g id="How-it-Works" transform="translate(244.000000, 4705.000000)">
                <g id="Group-8" transform="translate(49.000000, 196.000000)">
                    <g id="Group-5" transform="translate(0.000000, 3.000000)">
                        <g id="how-it-works-monthly" transform="translate(60.000000, 0.000000)">
                            <path d="M29.5,77.2755102 L57.8457944,77.2755102 L57.8457944,73.3877551 C57.8457944,71.2443589 56.1025365,69.5 53.9572602,69.5 L33.3885342,69.5 C31.2378954,69.5 29.5,71.2387419 29.5,73.3877551 L29.5,77.2755102 Z" id="Rectangle-10-Copy" stroke="#4ABFB6" stroke-width="3"></path>
                            <path d="M63.5788991,31.4177748 L88.4177748,31.4177748 L88.4177748,29.5299559 C88.4177748,25.8341391 85.5474825,21.5874398 82.1166673,20.2083697 L68.7611192,14.839897 C65.7501744,13.6296004 63.5788991,15.0930859 63.5788991,18.333438 L63.5788991,31.4177748 Z" id="Rectangle-10-Copy-5" stroke="#4ABFB6" stroke-width="3" transform="translate(75.998337, 22.919438) rotate(-270.000000) translate(-75.998337, -22.919438) "></path>
                            <path d="M-1.4235292,31.4177748 L23.4153464,31.4177748 L23.4153464,29.5299559 C23.4153464,25.8341391 20.5450541,21.5874398 17.114239,20.2083697 L3.75869084,14.839897 C0.747746087,13.6296004 -1.4235292,15.0930859 -1.4235292,18.333438 L-1.4235292,31.4177748 Z" id="Rectangle-10-Copy-6" stroke="#4ABFB6" stroke-width="3" transform="translate(10.995909, 22.919438) scale(-1, 1) rotate(-270.000000) translate(-10.995909, -22.919438) "></path>
                            <path d="M22.5,85.2755102 L66.5186916,85.2755102 L66.5186916,81.3877551 C66.5186916,79.244677 64.7734631,77.5 62.6250498,77.5 L26.3936418,77.5 C24.2415137,77.5 22.5,79.2401095 22.5,81.3877551 L22.5,85.2755102 Z" id="Rectangle-10-Copy-2" stroke="#4ABFB6" stroke-width="3"></path>
                            <path d="M38.8054766,55.5 C40.9610996,59.3724284 40.9598735,64.7927289 38.805454,68.6632653 L50.232581,68.6632653 C48.3181622,64.7664471 48.3188784,59.3955883 50.2325981,55.5 L38.8054766,55.5 Z" id="Rectangle-10-Copy-4" stroke="#4ABFB6" stroke-width="3"></path>
                            <g id="Rectangle-10-Copy-3" transform="translate(43.995911, 29.088586) rotate(-180.000000) translate(-43.995911, -29.088586) ">
                                <use fill="#FFFFFF" fill-rule="evenodd" xlink:href="#path-1"></use>
                                <path stroke="#4ABFB6" stroke-width="3" d="M19.5,56.6771716 L68.4918224,56.6771716 L68.4918224,26.0045058 C68.4918224,12.4648478 57.5278554,1.5 43.9959112,1.5 C30.4652657,1.5 19.5,12.4698111 19.5,26.0045058 L19.5,56.6771716 Z"></path>
                            </g>
                        </g>
                    </g>
                </g>
            </g>
        </g>
    </g>
</svg>