<?xml version="1.0" encoding="UTF-8"?>
<svg width="112px" height="88px" viewBox="0 0 112 88" version="1.1" xmlns="http://www.w3.org/2000/svg" xmlns:xlink="http://www.w3.org/1999/xlink">
    <!-- Generator: Sketch 44.1 (41455) - http://www.bohemiancoding.com/sketch -->
    <title>how-it-works-weekly</title>
    <desc>Created with Sketch.</desc>
    <defs></defs>
    <g id="Page-1" stroke="none" stroke-width="1" fill="none" fill-rule="evenodd">
        <g id="Main-V3" transform="translate(-337.000000, -5208.000000)" stroke="#4ABFB6" stroke-width="3">
            <g id="How-it-Works" transform="translate(244.000000, 4705.000000)">
                <g id="Group-7" transform="translate(49.000000, 495.000000)">
                    <g id="Group-6" transform="translate(0.000000, 10.000000)">
                        <g id="how-it-works-weekly" transform="translate(46.000000, 0.000000)">
                            <rect id="Rectangle-10" x="8.7" y="8.73364486" width="99.8" height="75.7663551" rx="7.6"></rect>
                            <path d="M9.2,21.5 L108.5,21.5" id="Line" stroke-linecap="square"></path>
                            <path d="M0,75.5517202 L0,7.63519568 L0,7.63519568 C0,3.41839354 3.40061192,0 7.6009223,0 L100.799078,0" id="Rectangle-10-Copy-7" stroke-linecap="round"></path>
                            <ellipse id="Oval-Copy-3" cx="57.9735808" cy="51.8411215" rx="15.9735808" ry="15.6728972"></ellipse>
                            <path d="M63.2919043,52.1835685 C63.5744586,52.3555898 63.5743623,52.6345499 63.2919043,52.8065125 L55.0449431,57.8273258 C54.7623888,57.999347 54.5333333,57.8709121 54.5333333,57.531932 L54.5333333,47.4581491 C54.5333333,47.1229863 54.7624851,46.9907926 55.0449431,47.1627552 L63.2919043,52.1835685 Z" id="Triangle"></path>
                        </g>
                    </g>
                </g>
            </g>
        </g>
    </g>
</svg>