<svg width="206" height="191" viewBox="0 0 206 191" xmlns="http://www.w3.org/2000/svg"><title>Group 6</title><g fill="none" fill-rule="evenodd"><g transform="translate(0 108)"><rect stroke="#DDD" stroke-width="3" x="1.5" y="1.5" width="203" height="80" rx="40"/><text font-family="Lato-Black, Lato" font-size="28" font-weight="700" fill="#4ABFB6"><tspan x="49.947" y="51"> Weekly</tspan></text></g><g transform="translate(46 2)" stroke="#4ABFB6" stroke-width="3"><rect x="8.7" y="8.734" width="99.8" height="75.766" rx="7.6"/><path d="M9.2 21.5h99.3" stroke-linecap="square"/><path d="M0 75.552V7.635C0 3.418 3.4 0 7.6 0h93.2" stroke-linecap="round"/><ellipse cx="57.974" cy="51.841" rx="15.974" ry="15.673"/><path d="M63.292 52.184c.282.172.282.45 0 .623l-8.247 5.02c-.283.172-.512.044-.512-.295V47.458c0-.335.23-.467.512-.295l8.247 5.02z"/></g></g></svg>