<svg width="206" height="190" viewBox="0 0 206 190" xmlns="http://www.w3.org/2000/svg" xmlns:xlink="http://www.w3.org/1999/xlink"><title>Group 5</title><defs><path d="M18 26.01C18 11.645 29.637 0 44 0c14.36 0 26 11.633 26 26.01V58H18V26.01z" id="a"/></defs><g fill="none" fill-rule="evenodd"><path d="M89.5 77.5h28v-4c0-2.205-1.796-4-4.006-4H93.506a3.999 3.999 0 0 0-4.006 4v4zM127.5 10.5v25h1.888c3.696 0 7.936-2.871 9.308-6.304l5.399-13.506c1.207-3.02-.261-5.19-3.508-5.19H127.5zM79.5 10.5v25h-1.888c-3.696 0-7.936-2.871-9.308-6.304L62.905 15.69c-1.207-3.02.261-5.19 3.508-5.19H79.5z" stroke="#4ABFB6" stroke-width="3"/><path d="M82.5 85.5h44v-4c0-2.205-1.796-4-4.007-4H86.507a4 4 0 0 0-4.007 4v4zM98.834 55.5c2.164 3.822 2.163 9.179 0 13h11.495c-1.922-3.847-1.922-9.153 0-13H98.834z" stroke="#4ABFB6" stroke-width="3"/><g transform="rotate(-180 74 29)"><use fill="#FFF" xlink:href="#a"/><path stroke="#4ABFB6" stroke-width="3" d="M19.5 56.5h49V26.01C68.5 12.465 57.535 1.5 44 1.5c-13.533 0-24.5 10.972-24.5 24.51V56.5z"/></g><g transform="translate(0 107)"><rect stroke="#DDD" stroke-width="3" x="1.5" y="1.5" width="203" height="80" rx="40"/><text font-family="Lato-Black, Lato" font-size="28" font-weight="700" fill="#4ABFB6"><tspan x="45.131" y="51"> Monthly</tspan></text></g></g></svg>