<svg width="167" height="62" viewBox="0 0 167 62" xmlns="http://www.w3.org/2000/svg" xmlns:xlink="http://www.w3.org/1999/xlink"><title>Group 16</title><defs><ellipse id="a" cx="29.151" cy="29.162" rx="29.151" ry="29.162"/><ellipse id="c" cx="29.151" cy="29.162" rx="29.151" ry="29.162"/></defs><g fill="none" fill-rule="evenodd"><g transform="translate(2 2)"><mask id="b" fill="#fff"><use xlink:href="#a"/></mask><use stroke="#4ABFB6" stroke-width="3" fill="#FFF" xlink:href="#a"/><ellipse stroke="#4ABFB6" stroke-width="3" mask="url(#b)" cx="29.502" cy="19.676" rx="9.132" ry="9.135"/><ellipse stroke="#4ABFB6" stroke-width="3" mask="url(#b)" cx="29.502" cy="49.189" rx="14.751" ry="14.757"/></g><g transform="translate(107 2)"><mask id="d" fill="#fff"><use xlink:href="#c"/></mask><use stroke="#4ABFB6" stroke-width="3" fill="#FFF" xlink:href="#c"/><ellipse stroke="#4ABFB6" stroke-width="3" mask="url(#d)" cx="29.502" cy="19.676" rx="9.132" ry="9.135"/><ellipse stroke="#4ABFB6" stroke-width="3" mask="url(#d)" cx="29.502" cy="49.189" rx="14.751" ry="14.757"/></g><g stroke-linecap="round" stroke="#4ABFB6" stroke-width="3"><path d="M94.527 21.694A16.446 16.446 0 0 0 83 17c-4.741 0-9.016 2-12.025 5.202"/><path d="M96.612 15.01l.004 9.237-9.046-.195"/><g><path d="M73.473 40.306A16.446 16.446 0 0 0 85 45c4.741 0 9.016-2 12.025-5.202"/><path d="M71.388 46.99l-.004-9.237 9.046.195"/></g></g></g></svg>