<svg width="63" height="63" viewBox="0 0 63 63" xmlns="http://www.w3.org/2000/svg"><title>testimondial-quote</title><g fill="none" fill-rule="evenodd"><circle fill="#4ABFB6" cx="31.5" cy="31.5" r="31.5"/><path d="M45.68 23.464c-4.219 2.072-6.328 4.506-6.328 7.302 1.798.208 3.285.941 4.46 2.201 1.176 1.26 1.764 2.72 1.764 4.377 0 1.76-.57 3.245-1.712 4.454-1.14 1.208-2.575 1.812-4.304 1.812-1.936 0-3.613-.785-5.03-2.356-1.418-1.571-2.127-3.479-2.127-5.723 0-6.733 3.769-11.998 11.306-15.796l1.97 3.729zm-16.705 0c-4.252 2.072-6.379 4.506-6.379 7.302 1.833.208 3.337.941 4.512 2.201 1.176 1.26 1.764 2.72 1.764 4.377 0 1.76-.58 3.245-1.738 4.454-1.158 1.208-2.601 1.812-4.33 1.812-1.936 0-3.605-.785-5.005-2.356-1.4-1.571-2.1-3.479-2.1-5.723 0-6.733 3.751-11.998 11.254-15.796l2.022 3.729z" fill="#FFF"/></g></svg>