<svg width="219" height="25" viewBox="0 0 219 25" xmlns="http://www.w3.org/2000/svg"><title>Real_Simple</title><g fill="none" fill-rule="evenodd"><path d="M4.954 10.505V5.653h5.302c2.12 0 3.357.898 3.357 2.515 0 1.439-1.413 2.337-3.534 2.337H4.954zM.006 24.52h4.948v-8.984h5.125l3.534 8.984h5.302l-3.887-10.062.177-.18c1.944-1.437 3.18-3.953 3.18-6.289 0-4.492-3.18-7.368-7.953-7.368H.006V24.52zM22.98.621H40.3v5.032H28.104v3.594h6.54v5.03h-6.54v5.391h12.371v4.852H22.98V.62M52.318 14.278l2.474-5.93 2.474 5.93h-4.948zM48.076 24.52l2.298-5.21h8.836l2.297 5.21h5.125L56.912.62h-4.064L42.951 24.52h5.125zM69.99.621h5.125v19.047h12.372v4.852H69.99V.62" fill="#DDD"/><path d="M95.97 16.434c2.297 2.875 3.711 3.594 6.008 3.594 2.474 0 4.242-1.078 4.242-2.695 0-1.258-1.06-1.976-4.065-2.696-4.242-1.078-5.832-1.976-7.07-3.774-.53-1.077-.883-2.155-.883-3.413 0-4.133 3.18-7.008 7.776-7.008 3.358 0 6.893 1.796 9.014 4.672l-3.536 3.054c-2.473-2.155-3.534-2.694-5.655-2.694-1.767 0-2.828.718-2.828 1.796 0 1.079.708 1.617 2.652 1.977.53.18 1.237.36 2.12.719l3.005.897c2.474.899 4.242 3.415 4.242 6.29 0 4.492-3.712 7.726-8.66 7.726-2.65 0-5.479-1.078-7.246-2.516-.707-.538-1.414-1.437-2.475-2.514-.353-.18-.353-.36-.706-.72l4.065-2.695M116.823 24.52h4.949V.62h-4.95zM128.664.621h4.596l5.83 12.938L145.1.621h4.948V24.52H145.1V12.482l-6.008 12.038-5.655-11.86v11.86h-4.772V.62M162.067 10.505V5.653h6.008c1.944 0 3.004.898 3.004 2.515 0 1.439-1.237 2.337-3.181 2.337h-5.831zm-4.95 14.015h5.126v-8.984h5.832c4.594 0 7.953-3.054 7.953-7.368 0-4.492-3.181-7.547-7.953-7.547h-10.957V24.52zM180.27.621h5.124v19.047h12.37v4.852H180.27V.62M201.476.621h17.144v5.032h-12.195v3.594h6.715v5.03h-6.715v5.391h12.548v4.852h-17.497V.62" fill="#999"/></g></svg>