<?xml version="1.0" encoding="UTF-8" standalone="no"?>
<svg width="1681px" height="191px" viewBox="0 0 1681 191" version="1.1" xmlns="http://www.w3.org/2000/svg" xmlns:xlink="http://www.w3.org/1999/xlink" xmlns:sketch="http://www.bohemiancoding.com/sketch/ns">
    <!-- Generator: Sketch 3.4 (15575) - http://www.bohemiancoding.com/sketch -->
    <title>ownersup-platform-logo-white</title>
    <desc>Created with Sketch.</desc>
    <defs>
        <path d="M756.103167,107.151178 C746.473746,113.983614 734.705912,118 722,118 C708.962584,118 696.912834,113.771301 687.147511,106.610663 L721.499756,50.1247559 L756.103167,107.151178 Z M771.260583,91.4832931 C777.416297,82.1670078 781,71.0020132 781,59 C781,26.4151998 754.5848,0 722,0 C689.4152,0 663,26.4151998 663,59 C663,70.6267495 666.363105,81.4680038 672.169584,90.6040328 L721.187256,9.37475586 L771.260581,91.4832957 Z" id="path-1"></path>
    </defs>
    <g id="Platform" stroke="none" stroke-width="1" fill="none" fill-rule="evenodd" sketch:type="MSPage">
        <g id="Rectangle-1-+-Master-Logo-Copy-+-Platform-Copy" sketch:type="MSLayerGroup" transform="translate(-543.000000, -62.000000)">
            <g id="Master-Logo-Copy-+-Platform-Copy" transform="translate(543.000000, 62.000000)">
                <g id="ownersup-platform-logo-white">
                    <g id="Master-Logo-Copy-2">
                        <path d="M74.4,189.4 C63.599946,189.4 53.666712,187.500019 44.6,183.7 C35.533288,179.899981 27.700033,174.766699 21.1,168.3 C14.499967,161.833301 9.366685,154.233377 5.7,145.5 C2.033315,136.766623 0.2,127.40005 0.2,117.4 L0.2,117 C0.2,106.99995 2.066648,97.633377 5.8,88.9 C9.533352,80.166623 14.699967,72.500033 21.3,65.9 C27.900033,59.299967 35.766621,54.100019 44.9,50.3 C54.033379,46.499981 63.999946,44.6 74.8,44.6 C85.600054,44.6 95.533288,46.499981 104.6,50.3 C113.666712,54.100019 121.499967,59.233301 128.1,65.7 C134.700033,72.166699 139.833315,79.766623 143.5,88.5 C147.166685,97.233377 149,106.59995 149,116.6 L149,117 C149,127.00005 147.133352,136.366623 143.4,145.1 C139.666648,153.833377 134.500033,161.499967 127.9,168.1 C121.299967,174.700033 113.433379,179.899981 104.3,183.7 C95.166621,187.500019 85.200054,189.4 74.4,189.4 L74.4,189.4 Z M74.8,161 C81.066698,161 86.766641,159.866678 91.9,157.6 C97.033359,155.333322 101.433315,152.20002 105.1,148.2 C108.766685,144.19998 111.633323,139.566693 113.7,134.3 C115.766677,129.033307 116.8,123.40003 116.8,117.4 L116.8,117 C116.8,110.99997 115.766677,105.33336 113.7,100 C111.633323,94.66664 108.700019,90.00002 104.9,86 C101.099981,81.99998 96.633359,78.833345 91.5,76.5 C86.366641,74.166655 80.666698,73 74.4,73 C68.266636,73 62.600026,74.133322 57.4,76.4 C52.199974,78.666678 47.766685,81.79998 44.1,85.8 C40.433315,89.80002 37.566677,94.433307 35.5,99.7 C33.433323,104.966693 32.4,110.59997 32.4,116.6 L32.4,117 C32.4,123.00003 33.433323,128.66664 35.5,134 C37.566677,139.33336 40.499981,143.99998 44.3,148 C48.100019,152.00002 52.599974,155.166655 57.8,157.5 C63.000026,159.833345 68.666636,161 74.8,161 L74.8,161 Z M146.4,79.8 L177.2,79.8 L194.4,144.8 L214.6,79.4 L240.8,79.4 L261.2,145 L278.8,79.8 L309,79.8 L275.6,187.8 L248.2,187.8 L227.6,122 L206.6,187.8 L179.4,187.8 L146.4,79.8 Z M311.4,79.8 L341.8,79.8 L341.8,95 C343.533342,92.733322 345.433323,90.566677 347.5,88.5 C349.566677,86.433323 351.866654,84.600008 354.4,83 C356.933346,81.399992 359.733318,80.133338 362.8,79.2 C365.866682,78.266662 369.333314,77.8 373.2,77.8 C384.800058,77.8 393.766635,81.333298 400.1,88.4 C406.433365,95.466702 409.6,105.199938 409.6,117.6 L409.6,187 L379.2,187 L379.2,127.2 C379.2,119.999964 377.600016,114.566685 374.4,110.9 C371.199984,107.233315 366.666696,105.4 360.8,105.4 C354.933304,105.4 350.300017,107.233315 346.9,110.9 C343.499983,114.566685 341.8,119.999964 341.8,127.2 L341.8,187 L311.4,187 L311.4,79.8 Z M469.8,189.4 C461.79996,189.4 454.366701,188.06668 447.5,185.4 C440.633299,182.73332 434.700025,178.933358 429.7,174 C424.699975,169.066642 420.800014,163.200034 418,156.4 C415.199986,149.599966 413.8,142.133374 413.8,134 L413.8,133.6 C413.8,125.999962 415.099987,118.800034 417.7,112 C420.300013,105.199966 423.93331,99.266692 428.6,94.2 C433.26669,89.133308 438.866634,85.133348 445.4,82.2 C451.933366,79.266652 459.066628,77.8 466.8,77.8 C475.733378,77.8 483.466634,79.399984 490,82.6 C496.533366,85.800016 501.966645,90.099973 506.3,95.5 C510.633355,100.900027 513.833323,107.099965 515.9,114.1 C517.966677,121.100035 519,128.399962 519,136 C519,137.200006 518.966667,138.46666 518.9,139.8 C518.833333,141.13334 518.733334,142.533326 518.6,144 L444,144 C445.466674,150.933368 448.499977,156.166649 453.1,159.7 C457.700023,163.233351 463.399966,165 470.2,165 C475.266692,165 479.79998,164.133342 483.8,162.4 C487.80002,160.666658 491.933312,157.866686 496.2,154 L513.6,169.4 C508.533308,175.666698 502.400036,180.566649 495.2,184.1 C487.999964,187.633351 479.533382,189.4 469.8,189.4 L469.8,189.4 Z M489.4,125 C488.466662,118.199966 486.066686,112.700021 482.2,108.5 C478.333314,104.299979 473.200032,102.2 466.8,102.2 C460.399968,102.2 455.233353,104.266646 451.3,108.4 C447.366647,112.533354 444.800006,118.066632 443.6,125 L489.4,125 Z M525.6,79.8 L556,79.8 L556,101.4 C559.066682,93.933296 563.299973,88.033355 568.7,83.7 C574.100027,79.366645 581.266622,77.399998 590.2,77.8 L590.2,109.6 L588.6,109.6 C578.466616,109.6 570.500029,112.666636 564.7,118.8 C558.899971,124.933364 556,134.466602 556,147.4 L556,187 L525.6,187 L525.6,79.8 Z M633.8,189 C626.199962,189 618.433373,187.700013 610.5,185.1 C602.566627,182.499987 595.000036,178.400028 587.8,172.8 L600.8,152.8 C606.666696,157.066688 612.499971,160.266656 618.3,162.4 C624.100029,164.533344 629.533308,165.6 634.6,165.6 C639.000022,165.6 642.233323,164.866674 644.3,163.4 C646.366677,161.933326 647.4,160.000012 647.4,157.6 L647.4,157.2 C647.4,155.599992 646.800006,154.200006 645.6,153 C644.399994,151.799994 642.766677,150.766671 640.7,149.9 C638.633323,149.033329 636.26668,148.200004 633.6,147.4 C630.93332,146.599996 628.133348,145.733338 625.2,144.8 C621.466648,143.733328 617.700019,142.433341 613.9,140.9 C610.099981,139.366659 606.666682,137.366679 603.6,134.9 C600.533318,132.433321 598.033343,129.400018 596.1,125.8 C594.166657,122.199982 593.2,117.800026 593.2,112.6 L593.2,112.2 C593.2,106.733306 594.233323,101.900021 596.3,97.7 C598.366677,93.499979 601.166649,89.933348 604.7,87 C608.233351,84.066652 612.399976,81.866674 617.2,80.4 C622.000024,78.933326 627.06664,78.2 632.4,78.2 C639.200034,78.2 646.099965,79.299989 653.1,81.5 C660.100035,83.700011 666.533304,86.733314 672.4,90.6 L660.8,111.6 C655.46664,108.533318 650.266692,106.100009 645.2,104.3 C640.133308,102.499991 635.666686,101.6 631.8,101.6 C628.066648,101.6 625.266676,102.299993 623.4,103.7 C621.533324,105.100007 620.6,106.866656 620.6,109 L620.6,109.4 C620.6,110.866674 621.199994,112.166661 622.4,113.3 C623.600006,114.433339 625.19999,115.499995 627.2,116.5 C629.20001,117.500005 631.499987,118.433329 634.1,119.3 C636.700013,120.166671 639.466652,121.133328 642.4,122.2 C646.133352,123.400006 649.933314,124.833325 653.8,126.5 C657.666686,128.166675 661.133318,130.199988 664.2,132.6 C667.266682,135.000012 669.79999,137.933316 671.8,141.4 C673.80001,144.866684 674.8,149.066642 674.8,154 L674.8,154.4 C674.8,160.40003 673.766677,165.566645 671.7,169.9 C669.633323,174.233355 666.733352,177.799986 663,180.6 C659.266648,183.400014 654.933358,185.499993 650,186.9 C645.066642,188.300007 639.666696,189 633.8,189 L633.8,189 Z" id="Owners" fill="#FFFFFF" sketch:type="MSShapeGroup"></path>
                        <path d="M843.8,190.2 C835.13329,190.2 827.233369,188.900013 820.1,186.3 C812.966631,183.699987 806.833359,179.833359 801.7,174.7 C796.566641,169.566641 792.600014,163.200038 789.8,155.6 C786.999986,147.999962 785.6,139.266716 785.6,129.4 L785.6,48 L801.4,48 L801.4,128.4 C801.4,143.600076 805.166629,155.266626 812.7,163.4 C820.233371,171.533374 830.733266,175.6 844.2,175.6 C857.133398,175.6 867.399962,171.733372 875,164 C882.600038,156.266628 886.4,144.73341 886.4,129.4 L886.4,48 L902.2,48 L902.2,128.2 C902.2,138.333384 900.800014,147.266628 898,155 C895.199986,162.733372 891.233359,169.199974 886.1,174.4 C880.966641,179.600026 874.833369,183.53332 867.7,186.2 C860.566631,188.86668 852.600044,190.2 843.8,190.2 L843.8,190.2 Z M913.2,48 L965.6,48 C973.466706,48 980.633301,49.033323 987.1,51.1 C993.566699,53.166677 999.099977,56.099981 1003.7,59.9 C1008.30002,63.700019 1011.83332,68.333306 1014.3,73.8 C1016.76668,79.266694 1018,85.466632 1018,92.4 L1018,92.8 C1018,100.400038 1016.53335,107.033305 1013.6,112.7 C1010.66665,118.366695 1006.70003,123.133314 1001.7,127 C996.699975,130.866686 990.8667,133.766657 984.2,135.7 C977.5333,137.633343 970.466704,138.6 963,138.6 L929,138.6 L929,188 L913.2,188 L913.2,48 Z M963.6,124.2 C969.466696,124.2 974.73331,123.466674 979.4,122 C984.06669,120.533326 988.099983,118.433347 991.5,115.7 C994.900017,112.966653 997.499991,109.700019 999.3,105.9 C1001.10001,102.099981 1002,97.933356 1002,93.4 L1002,93 C1002,82.99995 998.566701,75.433359 991.7,70.3 C984.833299,65.166641 975.73339,62.6 964.4,62.6 L929,62.6 L929,124.2 L963.6,124.2 Z" id="UP" fill="#FFFFFF" sketch:type="MSShapeGroup"></path>
                        <mask id="mask-2" sketch:name="Mask Copy" fill="white">
                            <use xlink:href="#path-1"></use>
                        </mask>
                        <use id="Mask-Copy" fill="#FFFFFF" sketch:type="MSShapeGroup" xlink:href="#path-1"></use>
                    </g>
                    <path d="M1092.256,86.2 L1129.984,86.2 C1135.64803,86.2 1140.80798,86.9439926 1145.464,88.432 C1150.12002,89.9200074 1154.10398,92.0319863 1157.416,94.768 C1160.72802,97.5040137 1163.27199,100.83998 1165.048,104.776 C1166.82401,108.71202 1167.712,113.175975 1167.712,118.168 L1167.712,118.456 C1167.712,123.928027 1166.65601,128.70398 1164.544,132.784 C1162.43199,136.86402 1159.57602,140.295986 1155.976,143.08 C1152.37598,145.864014 1148.17602,147.951993 1143.376,149.344 C1138.57598,150.736007 1133.48803,151.432 1128.112,151.432 L1103.632,151.432 L1103.632,187 L1092.256,187 L1092.256,86.2 Z M1128.544,141.064 C1132.76802,141.064 1136.55998,140.536005 1139.92,139.48 C1143.28002,138.423995 1146.18399,136.91201 1148.632,134.944 C1151.08001,132.97599 1152.95199,130.624014 1154.248,127.888 C1155.54401,125.151986 1156.192,122.152016 1156.192,118.888 L1156.192,118.6 C1156.192,111.399964 1153.72002,105.952018 1148.776,102.256 C1143.83198,98.5599815 1137.28004,96.712 1129.12,96.712 L1103.632,96.712 L1103.632,141.064 L1128.544,141.064 Z M1187.584,81.88 L1198.672,81.88 L1198.672,187 L1187.584,187 L1187.584,81.88 Z M1246.624,188.584 C1243.16798,188.584 1239.76002,188.080005 1236.4,187.072 C1233.03998,186.063995 1230.06401,184.60001 1227.472,182.68 C1224.87999,180.75999 1222.79201,178.360014 1221.208,175.48 C1219.62399,172.599986 1218.832,169.240019 1218.832,165.4 L1218.832,165.112 C1218.832,161.07998 1219.59999,157.552015 1221.136,154.528 C1222.67201,151.503985 1224.85599,148.98401 1227.688,146.968 C1230.52001,144.95199 1233.87998,143.416005 1237.768,142.36 C1241.65602,141.303995 1245.95198,140.776 1250.656,140.776 C1255.45602,140.776 1259.60798,141.063997 1263.112,141.64 C1266.61602,142.216003 1270.04798,142.983995 1273.408,143.944 L1273.408,141.64 C1273.408,135.015967 1271.48802,130.000017 1267.648,126.592 C1263.80798,123.183983 1258.38404,121.48 1251.376,121.48 C1246.95998,121.48 1242.95202,121.959995 1239.352,122.92 C1235.75198,123.880005 1232.22402,125.175992 1228.768,126.808 L1225.456,117.736 C1229.58402,115.81599 1233.75998,114.280006 1237.984,113.128 C1242.20802,111.975994 1247.05597,111.4 1252.528,111.4 C1263.08805,111.4 1271.10397,114.135973 1276.576,119.608 C1281.76003,124.792026 1284.352,132.087953 1284.352,141.496 L1284.352,187 L1273.408,187 L1273.408,175.912 C1272.15999,177.544008 1270.67201,179.127992 1268.944,180.664 C1267.21599,182.200008 1265.24801,183.543994 1263.04,184.696 C1260.83199,185.848006 1258.36001,186.783996 1255.624,187.504 C1252.88799,188.224004 1249.88802,188.584 1246.624,188.584 L1246.624,188.584 Z M1248.784,179.656 C1252.24002,179.656 1255.45599,179.176005 1258.432,178.216 C1261.40801,177.255995 1264.02399,175.888009 1266.28,174.112 C1268.53601,172.335991 1270.31199,170.224012 1271.608,167.776 C1272.90401,165.327988 1273.552,162.616015 1273.552,159.64 L1273.552,152.728 C1270.76799,151.959996 1267.60002,151.240003 1264.048,150.568 C1260.49598,149.895997 1256.41602,149.56 1251.808,149.56 C1244.89597,149.56 1239.54402,150.927986 1235.752,153.664 C1231.95998,156.400014 1230.064,160.023977 1230.064,164.536 L1230.064,164.824 C1230.064,167.128012 1230.56799,169.215991 1231.576,171.088 C1232.58401,172.960009 1233.95199,174.519994 1235.68,175.768 C1237.40801,177.016006 1239.39999,177.975997 1241.656,178.648 C1243.91201,179.320003 1246.28799,179.656 1248.784,179.656 L1248.784,179.656 Z M1332.016,188.296 C1329.03999,188.296 1326.25601,187.912004 1323.664,187.144 C1321.07199,186.375996 1318.84001,185.152008 1316.968,183.472 C1315.09599,181.791992 1313.63201,179.608013 1312.576,176.92 C1311.51999,174.231987 1310.992,171.016019 1310.992,167.272 L1310.992,122.344 L1300.624,122.344 L1300.624,112.552 L1310.992,112.552 L1310.992,90.088 L1322.08,90.088 L1322.08,112.552 L1345.696,112.552 L1345.696,122.344 L1322.08,122.344 L1322.08,165.832 C1322.08,170.440023 1323.23199,173.655991 1325.536,175.48 C1327.84001,177.304009 1330.86398,178.216 1334.608,178.216 C1336.52801,178.216 1338.32799,178.024002 1340.008,177.64 C1341.68801,177.255998 1343.48799,176.584005 1345.408,175.624 L1345.408,185.128 C1343.48799,186.184005 1341.44801,186.975997 1339.288,187.504 C1337.12799,188.032003 1334.70401,188.296 1332.016,188.296 L1332.016,188.296 Z M1369.456,122.344 L1359.232,122.344 L1359.232,112.696 L1369.456,112.696 L1369.456,106.216 C1369.456,97.7679578 1371.61598,91.3840216 1375.936,87.064 C1379.77602,83.2239808 1385.10397,81.304 1391.92,81.304 C1394.51201,81.304 1396.74399,81.4479986 1398.616,81.736 C1400.48801,82.0240014 1402.33599,82.5039966 1404.16,83.176 L1404.16,92.824 C1402.14399,92.2479971 1400.32001,91.7920017 1398.688,91.456 C1397.05599,91.1199983 1395.28001,90.952 1393.36,90.952 C1384.71996,90.952 1380.4,96.2319472 1380.4,106.792 L1380.4,112.84 L1404.016,112.84 L1404.016,122.344 L1380.544,122.344 L1380.544,187 L1369.456,187 L1369.456,122.344 Z M1450.672,188.728 C1445.10397,188.728 1439.96802,187.69601 1435.264,185.632 C1430.55998,183.56799 1426.48002,180.784018 1423.024,177.28 C1419.56798,173.775982 1416.88001,169.696023 1414.96,165.04 C1413.03999,160.383977 1412.08,155.416026 1412.08,150.136 L1412.08,149.848 C1412.08,144.567974 1413.06399,139.576024 1415.032,134.872 C1417.00001,130.167976 1419.71198,126.040018 1423.168,122.488 C1426.62402,118.935982 1430.72798,116.12801 1435.48,114.064 C1440.23202,111.99999 1445.39197,110.968 1450.96,110.968 C1456.52803,110.968 1461.68798,111.99999 1466.44,114.064 C1471.19202,116.12801 1475.29598,118.911982 1478.752,122.416 C1482.20802,125.920018 1484.89599,129.999977 1486.816,134.656 C1488.73601,139.312023 1489.696,144.279974 1489.696,149.56 L1489.696,149.848 C1489.696,155.128026 1488.71201,160.119976 1486.744,164.824 C1484.77599,169.528024 1482.06402,173.655982 1478.608,177.208 C1475.15198,180.760018 1471.04802,183.56799 1466.296,185.632 C1461.54398,187.69601 1456.33603,188.728 1450.672,188.728 L1450.672,188.728 Z M1450.96,178.792 C1454.99202,178.792 1458.68798,178.024008 1462.048,176.488 C1465.40802,174.951992 1468.28799,172.888013 1470.688,170.296 C1473.08801,167.703987 1474.95999,164.680017 1476.304,161.224 C1477.64801,157.767983 1478.32,154.07202 1478.32,150.136 L1478.32,149.848 C1478.32,145.81598 1477.62401,142.048018 1476.232,138.544 C1474.83999,135.039982 1472.89601,131.968013 1470.4,129.328 C1467.90399,126.687987 1464.97602,124.600008 1461.616,123.064 C1458.25598,121.527992 1454.60802,120.76 1450.672,120.76 C1446.63998,120.76 1442.94402,121.527992 1439.584,123.064 C1436.22398,124.600008 1433.36801,126.663987 1431.016,129.256 C1428.66399,131.848013 1426.81601,134.895982 1425.472,138.4 C1424.12799,141.904018 1423.456,145.62398 1423.456,149.56 L1423.456,149.848 C1423.456,153.88002 1424.15199,157.647982 1425.544,161.152 C1426.93601,164.656018 1428.85599,167.703987 1431.304,170.296 C1433.75201,172.888013 1436.65598,174.951992 1440.016,176.488 C1443.37602,178.024008 1447.02398,178.792 1450.96,178.792 L1450.96,178.792 Z M1509.712,112.552 L1520.8,112.552 L1520.8,131.992 C1522.14401,128.919985 1523.82399,126.088013 1525.84,123.496 C1527.85601,120.903987 1530.15999,118.672009 1532.752,116.8 C1535.34401,114.927991 1538.17598,113.488005 1541.248,112.48 C1544.32002,111.471995 1547.63198,111.063999 1551.184,111.256 L1551.184,123.208 L1550.32,123.208 C1546.28798,123.208 1542.47202,123.927993 1538.872,125.368 C1535.27198,126.808007 1532.12801,128.967986 1529.44,131.848 C1526.75199,134.728014 1524.64001,138.279979 1523.104,142.504 C1521.56799,146.728021 1520.8,151.671972 1520.8,157.336 L1520.8,187 L1509.712,187 L1509.712,112.552 Z M1568.032,112.552 L1579.12,112.552 L1579.12,125.08 C1580.36801,123.255991 1581.73599,121.480009 1583.224,119.752 C1584.71201,118.023991 1586.41599,116.512006 1588.336,115.216 C1590.25601,113.919994 1592.41599,112.888004 1594.816,112.12 C1597.21601,111.351996 1599.99998,110.968 1603.168,110.968 C1609.21603,110.968 1614.20798,112.383986 1618.144,115.216 C1622.08002,118.048014 1625.05599,121.575979 1627.072,125.8 C1629.76001,121.671979 1633.19198,118.168014 1637.368,115.288 C1641.54402,112.407986 1646.84797,110.968 1653.28,110.968 C1661.92004,110.968 1668.68798,113.631973 1673.584,118.96 C1678.48002,124.288027 1680.928,131.607953 1680.928,140.92 L1680.928,187 L1669.84,187 L1669.84,143.512 C1669.84,136.311964 1668.13602,130.768019 1664.728,126.88 C1661.31998,122.991981 1656.59203,121.048 1650.544,121.048 C1647.75999,121.048 1645.12001,121.551995 1642.624,122.56 C1640.12799,123.568005 1637.94401,125.05599 1636.072,127.024 C1634.19999,128.99201 1632.71201,131.415986 1631.608,134.296 C1630.50399,137.176014 1629.952,140.439982 1629.952,144.088 L1629.952,187 L1619.008,187 L1619.008,143.224 C1619.008,136.215965 1617.30402,130.768019 1613.896,126.88 C1610.48798,122.991981 1605.80803,121.048 1599.856,121.048 C1596.87999,121.048 1594.14401,121.623994 1591.648,122.776 C1589.15199,123.928006 1586.96801,125.559989 1585.096,127.672 C1583.22399,129.784011 1581.76001,132.255986 1580.704,135.088 C1579.64799,137.920014 1579.12,141.063983 1579.12,144.52 L1579.12,187 L1568.032,187 L1568.032,112.552 Z" id="Platform" opacity="0.8" fill="#FFFFFF" sketch:type="MSShapeGroup"></path>
                </g>
            </g>
        </g>
    </g>
</svg>