<svg width="1018" height="191" viewBox="0 0 1018 191" xmlns="http://www.w3.org/2000/svg"><title>ownersup-logo</title><g fill="#F06352" fill-rule="evenodd"><path d="M756.103 107.15C746.473 113.985 734.706 118 722 118c-13.037 0-25.087-4.23-34.852-11.39L721.5 50.126l34.603 57.026zm15.158-15.667C777.417 82.167 781 71.003 781 59c0-32.585-26.415-59-59-59s-59 26.415-59 59c0 11.627 3.363 22.468 9.17 31.604l49.017-81.23 50.074 82.11z"/><path d="M74.4 189.4c-10.8 0-20.733-1.9-29.8-5.7-9.067-3.8-16.9-8.933-23.5-15.4-6.6-6.467-11.733-14.067-15.4-22.8S.2 127.4.2 117.4v-.4c0-10 1.867-19.367 5.6-28.1 3.733-8.733 8.9-16.4 15.5-23 6.6-6.6 14.467-11.8 23.6-15.6 9.133-3.8 19.1-5.7 29.9-5.7 10.8 0 20.733 1.9 29.8 5.7 9.067 3.8 16.9 8.933 23.5 15.4 6.6 6.467 11.733 14.067 15.4 22.8s5.5 18.1 5.5 28.1v.4c0 10-1.867 19.367-5.6 28.1-3.733 8.733-8.9 16.4-15.5 23-6.6 6.6-14.467 11.8-23.6 15.6-9.133 3.8-19.1 5.7-29.9 5.7zm.4-28.4c6.267 0 11.967-1.133 17.1-3.4 5.133-2.267 9.533-5.4 13.2-9.4s6.533-8.633 8.6-13.9c2.067-5.267 3.1-10.9 3.1-16.9v-.4c0-6-1.033-11.667-3.1-17s-5-10-8.8-14c-3.8-4-8.267-7.167-13.4-9.5-5.133-2.333-10.833-3.5-17.1-3.5-6.133 0-11.8 1.133-17 3.4-5.2 2.267-9.633 5.4-13.3 9.4-3.667 4-6.533 8.633-8.6 13.9-2.067 5.267-3.1 10.9-3.1 16.9v.4c0 6 1.033 11.667 3.1 17s5 10 8.8 14c3.8 4 8.3 7.167 13.5 9.5 5.2 2.333 10.867 3.5 17 3.5zm71.6-81.2h30.8l17.2 65 20.2-65.4h26.2l20.4 65.6 17.6-65.2H309l-33.4 108h-27.4L227.6 122l-21 65.8h-27.2l-33-108zm165 0h30.4V95c1.733-2.267 3.633-4.433 5.7-6.5s4.367-3.9 6.9-5.5c2.533-1.6 5.333-2.867 8.4-3.8 3.067-.933 6.533-1.4 10.4-1.4 11.6 0 20.567 3.533 26.9 10.6 6.333 7.067 9.5 16.8 9.5 29.2V187h-30.4v-59.8c0-7.2-1.6-12.633-4.8-16.3-3.2-3.667-7.733-5.5-13.6-5.5s-10.5 1.833-13.9 5.5c-3.4 3.667-5.1 9.1-5.1 16.3V187h-30.4V79.8zm158.4 109.6c-8 0-15.433-1.333-22.3-4-6.867-2.667-12.8-6.467-17.8-11.4-5-4.933-8.9-10.8-11.7-17.6-2.8-6.8-4.2-14.267-4.2-22.4v-.4c0-7.6 1.3-14.8 3.9-21.6 2.6-6.8 6.233-12.733 10.9-17.8 4.667-5.067 10.267-9.067 16.8-12 6.533-2.933 13.667-4.4 21.4-4.4 8.933 0 16.667 1.6 23.2 4.8 6.533 3.2 11.967 7.5 16.3 12.9s7.533 11.6 9.6 18.6c2.067 7 3.1 14.3 3.1 21.9 0 1.2-.033 2.467-.1 3.8-.067 1.333-.167 2.733-.3 4.2H444c1.467 6.933 4.5 12.167 9.1 15.7 4.6 3.533 10.3 5.3 17.1 5.3 5.067 0 9.6-.867 13.6-2.6s8.133-4.533 12.4-8.4l17.4 15.4c-5.067 6.267-11.2 11.167-18.4 14.7-7.2 3.533-15.667 5.3-25.4 5.3zm19.6-64.4c-.933-6.8-3.333-12.3-7.2-16.5-3.867-4.2-9-6.3-15.4-6.3s-11.567 2.067-15.5 6.2-6.5 9.667-7.7 16.6h45.8zm36.2-45.2H556v21.6c3.067-7.467 7.3-13.367 12.7-17.7 5.4-4.333 12.567-6.3 21.5-5.9v31.8h-1.6c-10.133 0-18.1 3.067-23.9 9.2-5.8 6.133-8.7 15.667-8.7 28.6V187h-30.4V79.8zM633.8 189c-7.6 0-15.367-1.3-23.3-3.9-7.933-2.6-15.5-6.7-22.7-12.3l13-20c5.867 4.267 11.7 7.467 17.5 9.6 5.8 2.133 11.233 3.2 16.3 3.2 4.4 0 7.633-.733 9.7-2.2 2.067-1.467 3.1-3.4 3.1-5.8v-.4c0-1.6-.6-3-1.8-4.2-1.2-1.2-2.833-2.233-4.9-3.1s-4.433-1.7-7.1-2.5-5.467-1.667-8.4-2.6c-3.733-1.067-7.5-2.367-11.3-3.9-3.8-1.533-7.233-3.533-10.3-6-3.067-2.467-5.567-5.5-7.5-9.1-1.933-3.6-2.9-8-2.9-13.2v-.4c0-5.467 1.033-10.3 3.1-14.5 2.067-4.2 4.867-7.767 8.4-10.7 3.533-2.933 7.7-5.133 12.5-6.6 4.8-1.467 9.867-2.2 15.2-2.2 6.8 0 13.7 1.1 20.7 3.3 7 2.2 13.433 5.233 19.3 9.1l-11.6 21c-5.333-3.067-10.533-5.5-15.6-7.3-5.067-1.8-9.533-2.7-13.4-2.7-3.733 0-6.533.7-8.4 2.1-1.867 1.4-2.8 3.167-2.8 5.3v.4c0 1.467.6 2.767 1.8 3.9 1.2 1.133 2.8 2.2 4.8 3.2s4.3 1.933 6.9 2.8c2.6.867 5.367 1.833 8.3 2.9 3.733 1.2 7.533 2.633 11.4 4.3 3.867 1.667 7.333 3.7 10.4 6.1 3.067 2.4 5.6 5.333 7.6 8.8 2 3.467 3 7.667 3 12.6v.4c0 6-1.033 11.167-3.1 15.5s-4.967 7.9-8.7 10.7c-3.733 2.8-8.067 4.9-13 6.3-4.933 1.4-10.333 2.1-16.2 2.1zM843.8 190.2c-8.667 0-16.567-1.3-23.7-3.9-7.133-2.6-13.267-6.467-18.4-11.6-5.133-5.133-9.1-11.5-11.9-19.1-2.8-7.6-4.2-16.333-4.2-26.2V48h15.8v80.4c0 15.2 3.767 26.867 11.3 35 7.533 8.133 18.033 12.2 31.5 12.2 12.933 0 23.2-3.867 30.8-11.6 7.6-7.733 11.4-19.267 11.4-34.6V48h15.8v80.2c0 10.133-1.4 19.067-4.2 26.8-2.8 7.733-6.767 14.2-11.9 19.4-5.133 5.2-11.267 9.133-18.4 11.8-7.133 2.667-15.1 4-23.9 4zM913.2 48h52.4c7.867 0 15.033 1.033 21.5 3.1 6.467 2.067 12 5 16.6 8.8 4.6 3.8 8.133 8.433 10.6 13.9 2.467 5.467 3.7 11.667 3.7 18.6v.4c0 7.6-1.467 14.233-4.4 19.9-2.933 5.667-6.9 10.433-11.9 14.3-5 3.867-10.833 6.767-17.5 8.7-6.667 1.933-13.733 2.9-21.2 2.9h-34V188h-15.8V48zm50.4 76.2c5.867 0 11.133-.733 15.8-2.2 4.667-1.467 8.7-3.567 12.1-6.3 3.4-2.733 6-6 7.8-9.8 1.8-3.8 2.7-7.967 2.7-12.5V93c0-10-3.433-17.567-10.3-22.7-6.867-5.133-15.967-7.7-27.3-7.7H929v61.6h34.6z"/></g></svg>