<?xml version="1.0" encoding="UTF-8" standalone="no"?>
<svg width="2237px" height="210px" viewBox="0 0 2237 210" version="1.1" xmlns="http://www.w3.org/2000/svg" xmlns:xlink="http://www.w3.org/1999/xlink" xmlns:sketch="http://www.bohemiancoding.com/sketch/ns">
    <!-- Generator: Sketch 3.4.3 (16618) - http://www.bohemiancoding.com/sketch -->
    <title>ownersup-logo-white</title>
    <desc>Created with Sketch.</desc>
    <defs>
        <path d="M756.103167,107.151178 C746.473746,113.983614 734.705912,118 722,118 C708.962584,118 696.912834,113.771301 687.147511,106.610663 L721.499756,50.1247559 L756.103167,107.151178 Z M771.260583,91.4832931 C777.416297,82.1670078 781,71.0020132 781,59 C781,26.4151998 754.5848,0 722,0 C689.4152,0 663,26.4151998 663,59 C663,70.6267495 666.363105,81.4680038 672.169584,90.6040328 L721.187256,9.37475586 L771.260581,91.4832957 Z" id="path-1"></path>
    </defs>
    <g id="Platform" stroke="none" stroke-width="1" fill="none" fill-rule="evenodd" sketch:type="MSPage">
        <g id="Rectangle-1-+-Master-Logo-Copy-+-Platform-Copy" sketch:type="MSLayerGroup" transform="translate(-443.000000, -62.000000)">
            <g id="ownersup-logo-white" transform="translate(443.000000, 62.000000)">
                <g id="ownersup-platform-logo-white">
                    <g id="Master-Logo-Copy-2">
                        <path d="M74.4,189.4 C63.599946,189.4 53.666712,187.500019 44.6,183.7 C35.533288,179.899981 27.700033,174.766699 21.1,168.3 C14.499967,161.833301 9.366685,154.233377 5.7,145.5 C2.033315,136.766623 0.2,127.40005 0.2,117.4 L0.2,117 C0.2,106.99995 2.066648,97.633377 5.8,88.9 C9.533352,80.166623 14.699967,72.500033 21.3,65.9 C27.900033,59.299967 35.766621,54.100019 44.9,50.3 C54.033379,46.499981 63.999946,44.6 74.8,44.6 C85.600054,44.6 95.533288,46.499981 104.6,50.3 C113.666712,54.100019 121.499967,59.233301 128.1,65.7 C134.700033,72.166699 139.833315,79.766623 143.5,88.5 C147.166685,97.233377 149,106.59995 149,116.6 L149,117 C149,127.00005 147.133352,136.366623 143.4,145.1 C139.666648,153.833377 134.500033,161.499967 127.9,168.1 C121.299967,174.700033 113.433379,179.899981 104.3,183.7 C95.166621,187.500019 85.200054,189.4 74.4,189.4 L74.4,189.4 Z M74.8,161 C81.066698,161 86.766641,159.866678 91.9,157.6 C97.033359,155.333322 101.433315,152.20002 105.1,148.2 C108.766685,144.19998 111.633323,139.566693 113.7,134.3 C115.766677,129.033307 116.8,123.40003 116.8,117.4 L116.8,117 C116.8,110.99997 115.766677,105.33336 113.7,100 C111.633323,94.66664 108.700019,90.00002 104.9,86 C101.099981,81.99998 96.633359,78.833345 91.5,76.5 C86.366641,74.166655 80.666698,73 74.4,73 C68.266636,73 62.600026,74.133322 57.4,76.4 C52.199974,78.666678 47.766685,81.79998 44.1,85.8 C40.433315,89.80002 37.566677,94.433307 35.5,99.7 C33.433323,104.966693 32.4,110.59997 32.4,116.6 L32.4,117 C32.4,123.00003 33.433323,128.66664 35.5,134 C37.566677,139.33336 40.499981,143.99998 44.3,148 C48.100019,152.00002 52.599974,155.166655 57.8,157.5 C63.000026,159.833345 68.666636,161 74.8,161 L74.8,161 Z M146.4,79.8 L177.2,79.8 L194.4,144.8 L214.6,79.4 L240.8,79.4 L261.2,145 L278.8,79.8 L309,79.8 L275.6,187.8 L248.2,187.8 L227.6,122 L206.6,187.8 L179.4,187.8 L146.4,79.8 Z M311.4,79.8 L341.8,79.8 L341.8,95 C343.533342,92.733322 345.433323,90.566677 347.5,88.5 C349.566677,86.433323 351.866654,84.600008 354.4,83 C356.933346,81.399992 359.733318,80.133338 362.8,79.2 C365.866682,78.266662 369.333314,77.8 373.2,77.8 C384.800058,77.8 393.766635,81.333298 400.1,88.4 C406.433365,95.466702 409.6,105.199938 409.6,117.6 L409.6,187 L379.2,187 L379.2,127.2 C379.2,119.999964 377.600016,114.566685 374.4,110.9 C371.199984,107.233315 366.666696,105.4 360.8,105.4 C354.933304,105.4 350.300017,107.233315 346.9,110.9 C343.499983,114.566685 341.8,119.999964 341.8,127.2 L341.8,187 L311.4,187 L311.4,79.8 Z M469.8,189.4 C461.79996,189.4 454.366701,188.06668 447.5,185.4 C440.633299,182.73332 434.700025,178.933358 429.7,174 C424.699975,169.066642 420.800014,163.200034 418,156.4 C415.199986,149.599966 413.8,142.133374 413.8,134 L413.8,133.6 C413.8,125.999962 415.099987,118.800034 417.7,112 C420.300013,105.199966 423.93331,99.266692 428.6,94.2 C433.26669,89.133308 438.866634,85.133348 445.4,82.2 C451.933366,79.266652 459.066628,77.8 466.8,77.8 C475.733378,77.8 483.466634,79.399984 490,82.6 C496.533366,85.800016 501.966645,90.099973 506.3,95.5 C510.633355,100.900027 513.833323,107.099965 515.9,114.1 C517.966677,121.100035 519,128.399962 519,136 C519,137.200006 518.966667,138.46666 518.9,139.8 C518.833333,141.13334 518.733334,142.533326 518.6,144 L444,144 C445.466674,150.933368 448.499977,156.166649 453.1,159.7 C457.700023,163.233351 463.399966,165 470.2,165 C475.266692,165 479.79998,164.133342 483.8,162.4 C487.80002,160.666658 491.933312,157.866686 496.2,154 L513.6,169.4 C508.533308,175.666698 502.400036,180.566649 495.2,184.1 C487.999964,187.633351 479.533382,189.4 469.8,189.4 L469.8,189.4 Z M489.4,125 C488.466662,118.199966 486.066686,112.700021 482.2,108.5 C478.333314,104.299979 473.200032,102.2 466.8,102.2 C460.399968,102.2 455.233353,104.266646 451.3,108.4 C447.366647,112.533354 444.800006,118.066632 443.6,125 L489.4,125 Z M525.6,79.8 L556,79.8 L556,101.4 C559.066682,93.933296 563.299973,88.033355 568.7,83.7 C574.100027,79.366645 581.266622,77.399998 590.2,77.8 L590.2,109.6 L588.6,109.6 C578.466616,109.6 570.500029,112.666636 564.7,118.8 C558.899971,124.933364 556,134.466602 556,147.4 L556,187 L525.6,187 L525.6,79.8 Z M633.8,189 C626.199962,189 618.433373,187.700013 610.5,185.1 C602.566627,182.499987 595.000036,178.400028 587.8,172.8 L600.8,152.8 C606.666696,157.066688 612.499971,160.266656 618.3,162.4 C624.100029,164.533344 629.533308,165.6 634.6,165.6 C639.000022,165.6 642.233323,164.866674 644.3,163.4 C646.366677,161.933326 647.4,160.000012 647.4,157.6 L647.4,157.2 C647.4,155.599992 646.800006,154.200006 645.6,153 C644.399994,151.799994 642.766677,150.766671 640.7,149.9 C638.633323,149.033329 636.26668,148.200004 633.6,147.4 C630.93332,146.599996 628.133348,145.733338 625.2,144.8 C621.466648,143.733328 617.700019,142.433341 613.9,140.9 C610.099981,139.366659 606.666682,137.366679 603.6,134.9 C600.533318,132.433321 598.033343,129.400018 596.1,125.8 C594.166657,122.199982 593.2,117.800026 593.2,112.6 L593.2,112.2 C593.2,106.733306 594.233323,101.900021 596.3,97.7 C598.366677,93.499979 601.166649,89.933348 604.7,87 C608.233351,84.066652 612.399976,81.866674 617.2,80.4 C622.000024,78.933326 627.06664,78.2 632.4,78.2 C639.200034,78.2 646.099965,79.299989 653.1,81.5 C660.100035,83.700011 666.533304,86.733314 672.4,90.6 L660.8,111.6 C655.46664,108.533318 650.266692,106.100009 645.2,104.3 C640.133308,102.499991 635.666686,101.6 631.8,101.6 C628.066648,101.6 625.266676,102.299993 623.4,103.7 C621.533324,105.100007 620.6,106.866656 620.6,109 L620.6,109.4 C620.6,110.866674 621.199994,112.166661 622.4,113.3 C623.600006,114.433339 625.19999,115.499995 627.2,116.5 C629.20001,117.500005 631.499987,118.433329 634.1,119.3 C636.700013,120.166671 639.466652,121.133328 642.4,122.2 C646.133352,123.400006 649.933314,124.833325 653.8,126.5 C657.666686,128.166675 661.133318,130.199988 664.2,132.6 C667.266682,135.000012 669.79999,137.933316 671.8,141.4 C673.80001,144.866684 674.8,149.066642 674.8,154 L674.8,154.4 C674.8,160.40003 673.766677,165.566645 671.7,169.9 C669.633323,174.233355 666.733352,177.799986 663,180.6 C659.266648,183.400014 654.933358,185.499993 650,186.9 C645.066642,188.300007 639.666696,189 633.8,189 L633.8,189 Z" id="Owners" fill="#FFFFFF" sketch:type="MSShapeGroup"></path>
                        <path d="M843.8,190.2 C835.13329,190.2 827.233369,188.900013 820.1,186.3 C812.966631,183.699987 806.833359,179.833359 801.7,174.7 C796.566641,169.566641 792.600014,163.200038 789.8,155.6 C786.999986,147.999962 785.6,139.266716 785.6,129.4 L785.6,48 L801.4,48 L801.4,128.4 C801.4,143.600076 805.166629,155.266626 812.7,163.4 C820.233371,171.533374 830.733266,175.6 844.2,175.6 C857.133398,175.6 867.399962,171.733372 875,164 C882.600038,156.266628 886.4,144.73341 886.4,129.4 L886.4,48 L902.2,48 L902.2,128.2 C902.2,138.333384 900.800014,147.266628 898,155 C895.199986,162.733372 891.233359,169.199974 886.1,174.4 C880.966641,179.600026 874.833369,183.53332 867.7,186.2 C860.566631,188.86668 852.600044,190.2 843.8,190.2 L843.8,190.2 Z M913.2,48 L965.6,48 C973.466706,48 980.633301,49.033323 987.1,51.1 C993.566699,53.166677 999.099977,56.099981 1003.7,59.9 C1008.30002,63.700019 1011.83332,68.333306 1014.3,73.8 C1016.76668,79.266694 1018,85.466632 1018,92.4 L1018,92.8 C1018,100.400038 1016.53335,107.033305 1013.6,112.7 C1010.66665,118.366695 1006.70003,123.133314 1001.7,127 C996.699975,130.866686 990.8667,133.766657 984.2,135.7 C977.5333,137.633343 970.466704,138.6 963,138.6 L929,138.6 L929,188 L913.2,188 L913.2,48 Z M963.6,124.2 C969.466696,124.2 974.73331,123.466674 979.4,122 C984.06669,120.533326 988.099983,118.433347 991.5,115.7 C994.900017,112.966653 997.499991,109.700019 999.3,105.9 C1001.10001,102.099981 1002,97.933356 1002,93.4 L1002,93 C1002,82.99995 998.566701,75.433359 991.7,70.3 C984.833299,65.166641 975.73339,62.6 964.4,62.6 L929,62.6 L929,124.2 L963.6,124.2 Z" id="UP" fill="#FFFFFF" sketch:type="MSShapeGroup"></path>
                        <mask id="mask-2" sketch:name="Mask Copy" fill="white">
                            <use xlink:href="#path-1"></use>
                        </mask>
                        <use id="Mask-Copy" fill="#FFFFFF" sketch:type="MSShapeGroup" xlink:href="#path-1"></use>
                    </g>
                </g>
                <path d="M1070.56,121.344 L1060.336,121.344 L1060.336,111.696 L1070.56,111.696 L1070.56,105.216 C1070.56,96.7679578 1072.71998,90.3840216 1077.04,86.064 C1080.88002,82.2239808 1086.20797,80.304 1093.024,80.304 C1095.61601,80.304 1097.84799,80.4479986 1099.72,80.736 C1101.59201,81.0240014 1103.43999,81.5039966 1105.264,82.176 L1105.264,91.824 C1103.24799,91.2479971 1101.42401,90.7920017 1099.792,90.456 C1098.15999,90.1199983 1096.38401,89.952 1094.464,89.952 C1085.82396,89.952 1081.504,95.2319472 1081.504,105.792 L1081.504,111.84 L1105.12,111.84 L1105.12,121.344 L1081.648,121.344 L1081.648,186 L1070.56,186 L1070.56,121.344 Z M1151.776,187.728 C1146.20797,187.728 1141.07202,186.69601 1136.368,184.632 C1131.66398,182.56799 1127.58402,179.784018 1124.128,176.28 C1120.67198,172.775982 1117.98401,168.696023 1116.064,164.04 C1114.14399,159.383977 1113.184,154.416026 1113.184,149.136 L1113.184,148.848 C1113.184,143.567974 1114.16799,138.576024 1116.136,133.872 C1118.10401,129.167976 1120.81598,125.040018 1124.272,121.488 C1127.72802,117.935982 1131.83198,115.12801 1136.584,113.064 C1141.33602,110.99999 1146.49597,109.968 1152.064,109.968 C1157.63203,109.968 1162.79198,110.99999 1167.544,113.064 C1172.29602,115.12801 1176.39998,117.911982 1179.856,121.416 C1183.31202,124.920018 1185.99999,128.999977 1187.92,133.656 C1189.84001,138.312023 1190.8,143.279974 1190.8,148.56 L1190.8,148.848 C1190.8,154.128026 1189.81601,159.119976 1187.848,163.824 C1185.87999,168.528024 1183.16802,172.655982 1179.712,176.208 C1176.25598,179.760018 1172.15202,182.56799 1167.4,184.632 C1162.64798,186.69601 1157.44003,187.728 1151.776,187.728 L1151.776,187.728 Z M1152.064,177.792 C1156.09602,177.792 1159.79198,177.024008 1163.152,175.488 C1166.51202,173.951992 1169.39199,171.888013 1171.792,169.296 C1174.19201,166.703987 1176.06399,163.680017 1177.408,160.224 C1178.75201,156.767983 1179.424,153.07202 1179.424,149.136 L1179.424,148.848 C1179.424,144.81598 1178.72801,141.048018 1177.336,137.544 C1175.94399,134.039982 1174.00001,130.968013 1171.504,128.328 C1169.00799,125.687987 1166.08002,123.600008 1162.72,122.064 C1159.35998,120.527992 1155.71202,119.76 1151.776,119.76 C1147.74398,119.76 1144.04802,120.527992 1140.688,122.064 C1137.32798,123.600008 1134.47201,125.663987 1132.12,128.256 C1129.76799,130.848013 1127.92001,133.895982 1126.576,137.4 C1125.23199,140.904018 1124.56,144.62398 1124.56,148.56 L1124.56,148.848 C1124.56,152.88002 1125.25599,156.647982 1126.648,160.152 C1128.04001,163.656018 1129.95999,166.703987 1132.408,169.296 C1134.85601,171.888013 1137.75998,173.951992 1141.12,175.488 C1144.48002,177.024008 1148.12798,177.792 1152.064,177.792 L1152.064,177.792 Z M1210.816,111.552 L1221.904,111.552 L1221.904,130.992 C1223.24801,127.919985 1224.92799,125.088013 1226.944,122.496 C1228.96001,119.903987 1231.26399,117.672009 1233.856,115.8 C1236.44801,113.927991 1239.27998,112.488005 1242.352,111.48 C1245.42402,110.471995 1248.73598,110.063999 1252.288,110.256 L1252.288,122.208 L1251.424,122.208 C1247.39198,122.208 1243.57602,122.927993 1239.976,124.368 C1236.37598,125.808007 1233.23201,127.967986 1230.544,130.848 C1227.85599,133.728014 1225.74401,137.279979 1224.208,141.504 C1222.67199,145.728021 1221.904,150.671972 1221.904,156.336 L1221.904,186 L1210.816,186 L1210.816,111.552 Z M1348.768,187.44 C1340.70396,187.44 1333.33603,186.120013 1326.664,183.48 C1319.99197,180.839987 1313.63203,176.784027 1307.584,171.312 L1314.64,162.96 C1319.92003,167.760024 1325.24797,171.335988 1330.624,173.688 C1336.00003,176.040012 1342.19196,177.216 1349.2,177.216 C1356.01603,177.216 1361.46398,175.608016 1365.544,172.392 C1369.62402,169.175984 1371.664,165.072025 1371.664,160.08 L1371.664,159.792 C1371.664,157.487988 1371.28,155.400009 1370.512,153.528 C1369.744,151.655991 1368.40001,149.952008 1366.48,148.416 C1364.55999,146.879992 1361.89602,145.488006 1358.488,144.24 C1355.07998,142.991994 1350.73603,141.792006 1345.456,140.64 C1339.69597,139.391994 1334.68002,137.952008 1330.408,136.32 C1326.13598,134.687992 1322.60801,132.720012 1319.824,130.416 C1317.03999,128.111988 1314.97601,125.424015 1313.632,122.352 C1312.28799,119.279985 1311.616,115.680021 1311.616,111.552 L1311.616,111.264 C1311.616,107.32798 1312.43199,103.680017 1314.064,100.32 C1315.69601,96.9599832 1317.99999,94.0560122 1320.976,91.608 C1323.95201,89.1599878 1327.45598,87.240007 1331.488,85.848 C1335.52002,84.455993 1339.93598,83.76 1344.736,83.76 C1352.12804,83.76 1358.58397,84.7919897 1364.104,86.856 C1369.62403,88.9200103 1374.97597,92.0159794 1380.16,96.144 L1373.536,104.928 C1368.83198,101.087981 1364.10402,98.3040086 1359.352,96.576 C1354.59998,94.8479914 1349.63203,93.984 1344.448,93.984 C1337.82397,93.984 1332.59202,95.5439844 1328.752,98.664 C1324.91198,101.784016 1322.992,105.647977 1322.992,110.256 L1322.992,110.544 C1322.992,112.944012 1323.376,115.079991 1324.144,116.952 C1324.912,118.824009 1326.30399,120.551992 1328.32,122.136 C1330.33601,123.720008 1333.11998,125.159994 1336.672,126.456 C1340.22402,127.752006 1344.78397,128.975994 1350.352,130.128 C1361.58406,132.528012 1369.86397,135.959978 1375.192,140.424 C1380.52003,144.888022 1383.184,150.959962 1383.184,158.64 L1383.184,158.928 C1383.184,163.248022 1382.32001,167.159982 1380.592,170.664 C1378.86399,174.168018 1376.48802,177.167988 1373.464,179.664 C1370.43998,182.160012 1366.81602,184.079993 1362.592,185.424 C1358.36798,186.768007 1353.76002,187.44 1348.768,187.44 L1348.768,187.44 Z M1438.48,187.728 C1432.91197,187.728 1427.77602,186.69601 1423.072,184.632 C1418.36798,182.56799 1414.28802,179.784018 1410.832,176.28 C1407.37598,172.775982 1404.68801,168.696023 1402.768,164.04 C1400.84799,159.383977 1399.888,154.416026 1399.888,149.136 L1399.888,148.848 C1399.888,143.567974 1400.87199,138.576024 1402.84,133.872 C1404.80801,129.167976 1407.51998,125.040018 1410.976,121.488 C1414.43202,117.935982 1418.53598,115.12801 1423.288,113.064 C1428.04002,110.99999 1433.19997,109.968 1438.768,109.968 C1444.33603,109.968 1449.49598,110.99999 1454.248,113.064 C1459.00002,115.12801 1463.10398,117.911982 1466.56,121.416 C1470.01602,124.920018 1472.70399,128.999977 1474.624,133.656 C1476.54401,138.312023 1477.504,143.279974 1477.504,148.56 L1477.504,148.848 C1477.504,154.128026 1476.52001,159.119976 1474.552,163.824 C1472.58399,168.528024 1469.87202,172.655982 1466.416,176.208 C1462.95998,179.760018 1458.85602,182.56799 1454.104,184.632 C1449.35198,186.69601 1444.14403,187.728 1438.48,187.728 L1438.48,187.728 Z M1438.768,177.792 C1442.80002,177.792 1446.49598,177.024008 1449.856,175.488 C1453.21602,173.951992 1456.09599,171.888013 1458.496,169.296 C1460.89601,166.703987 1462.76799,163.680017 1464.112,160.224 C1465.45601,156.767983 1466.128,153.07202 1466.128,149.136 L1466.128,148.848 C1466.128,144.81598 1465.43201,141.048018 1464.04,137.544 C1462.64799,134.039982 1460.70401,130.968013 1458.208,128.328 C1455.71199,125.687987 1452.78402,123.600008 1449.424,122.064 C1446.06398,120.527992 1442.41602,119.76 1438.48,119.76 C1434.44798,119.76 1430.75202,120.527992 1427.392,122.064 C1424.03198,123.600008 1421.17601,125.663987 1418.824,128.256 C1416.47199,130.848013 1414.62401,133.895982 1413.28,137.4 C1411.93599,140.904018 1411.264,144.62398 1411.264,148.56 L1411.264,148.848 C1411.264,152.88002 1411.95999,156.647982 1413.352,160.152 C1414.74401,163.656018 1416.66399,166.703987 1419.112,169.296 C1421.56001,171.888013 1424.46398,173.951992 1427.824,175.488 C1431.18402,177.024008 1434.83198,177.792 1438.768,177.792 L1438.768,177.792 Z M1498.528,80.88 L1509.616,80.88 L1509.616,186 L1498.528,186 L1498.528,80.88 Z M1569.376,187.728 C1563.80797,187.728 1558.67202,186.69601 1553.968,184.632 C1549.26398,182.56799 1545.18402,179.784018 1541.728,176.28 C1538.27198,172.775982 1535.58401,168.696023 1533.664,164.04 C1531.74399,159.383977 1530.784,154.416026 1530.784,149.136 L1530.784,148.848 C1530.784,143.567974 1531.76799,138.576024 1533.736,133.872 C1535.70401,129.167976 1538.41598,125.040018 1541.872,121.488 C1545.32802,117.935982 1549.43198,115.12801 1554.184,113.064 C1558.93602,110.99999 1564.09597,109.968 1569.664,109.968 C1575.23203,109.968 1580.39198,110.99999 1585.144,113.064 C1589.89602,115.12801 1593.99998,117.911982 1597.456,121.416 C1600.91202,124.920018 1603.59999,128.999977 1605.52,133.656 C1607.44001,138.312023 1608.4,143.279974 1608.4,148.56 L1608.4,148.848 C1608.4,154.128026 1607.41601,159.119976 1605.448,163.824 C1603.47999,168.528024 1600.76802,172.655982 1597.312,176.208 C1593.85598,179.760018 1589.75202,182.56799 1585,184.632 C1580.24798,186.69601 1575.04003,187.728 1569.376,187.728 L1569.376,187.728 Z M1569.664,177.792 C1573.69602,177.792 1577.39198,177.024008 1580.752,175.488 C1584.11202,173.951992 1586.99199,171.888013 1589.392,169.296 C1591.79201,166.703987 1593.66399,163.680017 1595.008,160.224 C1596.35201,156.767983 1597.024,153.07202 1597.024,149.136 L1597.024,148.848 C1597.024,144.81598 1596.32801,141.048018 1594.936,137.544 C1593.54399,134.039982 1591.60001,130.968013 1589.104,128.328 C1586.60799,125.687987 1583.68002,123.600008 1580.32,122.064 C1576.95998,120.527992 1573.31202,119.76 1569.376,119.76 C1565.34398,119.76 1561.64802,120.527992 1558.288,122.064 C1554.92798,123.600008 1552.07201,125.663987 1549.72,128.256 C1547.36799,130.848013 1545.52001,133.895982 1544.176,137.4 C1542.83199,140.904018 1542.16,144.62398 1542.16,148.56 L1542.16,148.848 C1542.16,152.88002 1542.85599,156.647982 1544.248,160.152 C1545.64001,163.656018 1547.55999,166.703987 1550.008,169.296 C1552.45601,171.888013 1555.35998,173.951992 1558.72,175.488 C1562.08002,177.024008 1565.72798,177.792 1569.664,177.792 L1569.664,177.792 Z M1628.416,111.552 L1639.504,111.552 L1639.504,126.528 C1641.04001,124.319989 1642.74399,122.20801 1644.616,120.192 C1646.48801,118.17599 1648.57599,116.400008 1650.88,114.864 C1653.18401,113.327992 1655.75199,112.128004 1658.584,111.264 C1661.41601,110.399996 1664.55998,109.968 1668.016,109.968 C1672.52802,109.968 1676.89598,110.831991 1681.12,112.56 C1685.34402,114.288009 1689.13598,116.807983 1692.496,120.12 C1695.85602,123.432017 1698.54399,127.463976 1700.56,132.216 C1702.57601,136.968024 1703.584,142.415969 1703.584,148.56 L1703.584,148.848 C1703.584,154.89603 1702.57601,160.319976 1700.56,165.12 C1698.54399,169.920024 1695.88002,173.975983 1692.568,177.288 C1689.25598,180.600017 1685.46402,183.143991 1681.192,184.92 C1676.91998,186.696009 1672.52802,187.584 1668.016,187.584 C1664.55998,187.584 1661.39201,187.152004 1658.512,186.288 C1655.63199,185.423996 1653.04001,184.272007 1650.736,182.832 C1648.43199,181.391993 1646.34401,179.71201 1644.472,177.792 C1642.59999,175.87199 1640.94401,173.856011 1639.504,171.744 L1639.504,209.04 L1628.416,209.04 L1628.416,111.552 Z M1666,177.648 C1669.64802,177.648 1673.05598,177.000006 1676.224,175.704 C1679.39202,174.407994 1682.15199,172.536012 1684.504,170.088 C1686.85601,167.639988 1688.72799,164.640018 1690.12,161.088 C1691.51201,157.535982 1692.208,153.504023 1692.208,148.992 L1692.208,148.704 C1692.208,144.287978 1691.51201,140.304018 1690.12,136.752 C1688.72799,133.199982 1686.83201,130.176012 1684.432,127.68 C1682.03199,125.183988 1679.24802,123.264007 1676.08,121.92 C1672.91198,120.575993 1669.55202,119.904 1666,119.904 C1662.54398,119.904 1659.20802,120.599993 1655.992,121.992 C1652.77598,123.384007 1649.89601,125.327988 1647.352,127.824 C1644.80799,130.320012 1642.79201,133.343982 1641.304,136.896 C1639.81599,140.448018 1639.072,144.335979 1639.072,148.56 L1639.072,148.848 C1639.072,153.168022 1639.81599,157.103982 1641.304,160.656 C1642.79201,164.208018 1644.80799,167.231988 1647.352,169.728 C1649.89601,172.224012 1652.77598,174.167993 1655.992,175.56 C1659.20802,176.952007 1662.54398,177.648 1666,177.648 L1666,177.648 Z M1724.032,111.552 L1735.12,111.552 L1735.12,130.992 C1736.46401,127.919985 1738.14399,125.088013 1740.16,122.496 C1742.17601,119.903987 1744.47999,117.672009 1747.072,115.8 C1749.66401,113.927991 1752.49598,112.488005 1755.568,111.48 C1758.64002,110.471995 1761.95198,110.063999 1765.504,110.256 L1765.504,122.208 L1764.64,122.208 C1760.60798,122.208 1756.79202,122.927993 1753.192,124.368 C1749.59198,125.808007 1746.44801,127.967986 1743.76,130.848 C1741.07199,133.728014 1738.96001,137.279979 1737.424,141.504 C1735.88799,145.728021 1735.12,150.671972 1735.12,156.336 L1735.12,186 L1724.032,186 L1724.032,111.552 Z M1785.808,153.312 C1786.192,157.24802 1787.15199,160.751985 1788.688,163.824 C1790.22401,166.896015 1792.19199,169.487989 1794.592,171.6 C1796.99201,173.712011 1799.67999,175.319994 1802.656,176.424 C1805.63201,177.528006 1808.75198,178.08 1812.016,178.08 C1817.20003,178.08 1821.63998,177.12001 1825.336,175.2 C1829.03202,173.27999 1832.41598,170.736016 1835.488,167.568 L1842.4,173.76 C1838.65598,177.984021 1834.38402,181.367987 1829.584,183.912 C1824.78398,186.456013 1818.83204,187.728 1811.728,187.728 C1806.63997,187.728 1801.84002,186.792009 1797.328,184.92 C1792.81598,183.047991 1788.88002,180.408017 1785.52,177 C1782.15998,173.591983 1779.49601,169.488024 1777.528,164.688 C1775.55999,159.887976 1774.576,154.608029 1774.576,148.848 C1774.576,143.471973 1775.46399,138.408024 1777.24,133.656 C1779.01601,128.903976 1781.48798,124.776018 1784.656,121.272 C1787.82402,117.767982 1791.59198,115.00801 1795.96,112.992 C1800.32802,110.97599 1805.10397,109.968 1810.288,109.968 C1815.76003,109.968 1820.65598,110.99999 1824.976,113.064 C1829.29602,115.12801 1832.94399,117.935982 1835.92,121.488 C1838.89601,125.040018 1841.15199,129.215976 1842.688,134.016 C1844.22401,138.816024 1844.992,143.951973 1844.992,149.424 L1844.992,151.152 C1844.992,151.728003 1844.944,152.447996 1844.848,153.312 L1785.808,153.312 Z M1833.76,144.384 C1833.472,141.023983 1832.75201,137.832015 1831.6,134.808 C1830.44799,131.783985 1828.88801,129.120012 1826.92,126.816 C1824.95199,124.511988 1822.55201,122.688007 1819.72,121.344 C1816.88799,119.999993 1813.64802,119.328 1810,119.328 C1806.83198,119.328 1803.85601,119.951994 1801.072,121.2 C1798.28799,122.448006 1795.84001,124.199989 1793.728,126.456 C1791.61599,128.712011 1789.86401,131.351985 1788.472,134.376 C1787.07999,137.400015 1786.192,140.735982 1785.808,144.384 L1833.76,144.384 Z M1864.432,111.552 L1875.52,111.552 L1875.52,124.512 C1878.01601,120.47998 1881.27998,117.048014 1885.312,114.216 C1889.34402,111.383986 1894.57597,109.968 1901.008,109.968 C1905.52002,109.968 1909.52798,110.687993 1913.032,112.128 C1916.53602,113.568007 1919.51199,115.607987 1921.96,118.248 C1924.40801,120.888013 1926.27999,124.031982 1927.576,127.68 C1928.87201,131.328018 1929.52,135.359978 1929.52,139.776 L1929.52,186 L1918.432,186 L1918.432,142.512 C1918.432,135.599965 1916.65602,130.12802 1913.104,126.096 C1909.55198,122.06398 1904.46403,120.048 1897.84,120.048 C1894.67198,120.048 1891.72001,120.599994 1888.984,121.704 C1886.24799,122.808006 1883.87201,124.39199 1881.856,126.456 C1879.83999,128.52001 1878.28001,130.991986 1877.176,133.872 C1876.07199,136.752014 1875.52,139.919983 1875.52,143.376 L1875.52,186 L1864.432,186 L1864.432,111.552 Z M1959.76,153.312 C1960.144,157.24802 1961.10399,160.751985 1962.64,163.824 C1964.17601,166.896015 1966.14399,169.487989 1968.544,171.6 C1970.94401,173.712011 1973.63199,175.319994 1976.608,176.424 C1979.58401,177.528006 1982.70398,178.08 1985.968,178.08 C1991.15203,178.08 1995.59198,177.12001 1999.288,175.2 C2002.98402,173.27999 2006.36798,170.736016 2009.44,167.568 L2016.352,173.76 C2012.60798,177.984021 2008.33602,181.367987 2003.536,183.912 C1998.73598,186.456013 1992.78404,187.728 1985.68,187.728 C1980.59197,187.728 1975.79202,186.792009 1971.28,184.92 C1966.76798,183.047991 1962.83202,180.408017 1959.472,177 C1956.11198,173.591983 1953.44801,169.488024 1951.48,164.688 C1949.51199,159.887976 1948.528,154.608029 1948.528,148.848 C1948.528,143.471973 1949.41599,138.408024 1951.192,133.656 C1952.96801,128.903976 1955.43998,124.776018 1958.608,121.272 C1961.77602,117.767982 1965.54398,115.00801 1969.912,112.992 C1974.28002,110.97599 1979.05597,109.968 1984.24,109.968 C1989.71203,109.968 1994.60798,110.99999 1998.928,113.064 C2003.24802,115.12801 2006.89599,117.935982 2009.872,121.488 C2012.84801,125.040018 2015.10399,129.215976 2016.64,134.016 C2018.17601,138.816024 2018.944,143.951973 2018.944,149.424 L2018.944,151.152 C2018.944,151.728003 2018.896,152.447996 2018.8,153.312 L1959.76,153.312 Z M2007.712,144.384 C2007.424,141.023983 2006.70401,137.832015 2005.552,134.808 C2004.39999,131.783985 2002.84001,129.120012 2000.872,126.816 C1998.90399,124.511988 1996.50401,122.688007 1993.672,121.344 C1990.83999,119.999993 1987.60002,119.328 1983.952,119.328 C1980.78398,119.328 1977.80801,119.951994 1975.024,121.2 C1972.23999,122.448006 1969.79201,124.199989 1967.68,126.456 C1965.56799,128.712011 1963.81601,131.351985 1962.424,134.376 C1961.03199,137.400015 1960.144,140.735982 1959.76,144.384 L2007.712,144.384 Z M2065.744,187.584 C2061.23198,187.584 2057.22402,186.864007 2053.72,185.424 C2050.21598,183.983993 2047.24001,181.944013 2044.792,179.304 C2042.34399,176.663987 2040.47201,173.520018 2039.176,169.872 C2037.87999,166.223982 2037.232,162.192022 2037.232,157.776 L2037.232,111.552 L2048.32,111.552 L2048.32,155.04 C2048.32,161.952035 2050.09598,167.42398 2053.648,171.456 C2057.20002,175.48802 2062.28797,177.504 2068.912,177.504 C2072.08002,177.504 2075.03199,176.952006 2077.768,175.848 C2080.50401,174.743994 2082.85599,173.16001 2084.824,171.096 C2086.79201,169.03199 2088.35199,166.560014 2089.504,163.68 C2090.65601,160.799986 2091.232,157.632017 2091.232,154.176 L2091.232,111.552 L2102.176,111.552 L2102.176,186 L2091.232,186 L2091.232,173.04 C2088.73599,177.07202 2085.47202,180.503986 2081.44,183.336 C2077.40798,186.168014 2072.17603,187.584 2065.744,187.584 L2065.744,187.584 Z M2127.088,111.552 L2138.176,111.552 L2138.176,130.992 C2139.52001,127.919985 2141.19999,125.088013 2143.216,122.496 C2145.23201,119.903987 2147.53599,117.672009 2150.128,115.8 C2152.72001,113.927991 2155.55198,112.488005 2158.624,111.48 C2161.69602,110.471995 2165.00798,110.063999 2168.56,110.256 L2168.56,122.208 L2167.696,122.208 C2163.66398,122.208 2159.84802,122.927993 2156.248,124.368 C2152.64798,125.808007 2149.50401,127.967986 2146.816,130.848 C2144.12799,133.728014 2142.01601,137.279979 2140.48,141.504 C2138.94399,145.728021 2138.176,150.671972 2138.176,156.336 L2138.176,186 L2127.088,186 L2127.088,111.552 Z M2210.032,187.44 C2204.65597,187.44 2199.23203,186.45601 2193.76,184.488 C2188.28797,182.51999 2183.44002,179.856017 2179.216,176.496 L2184.832,168.576 C2188.86402,171.648015 2193.06398,173.999992 2197.432,175.632 C2201.80002,177.264008 2206.19198,178.08 2210.608,178.08 C2215.12002,178.08 2218.81599,177.024011 2221.696,174.912 C2224.57601,172.799989 2226.016,169.920018 2226.016,166.272 L2226.016,165.984 C2226.016,164.06399 2225.51201,162.456006 2224.504,161.16 C2223.49599,159.863994 2222.12801,158.712005 2220.4,157.704 C2218.67199,156.695995 2216.70401,155.808004 2214.496,155.04 C2212.28799,154.271996 2209.93601,153.552003 2207.44,152.88 C2204.55999,152.015996 2201.65601,151.080005 2198.728,150.072 C2195.79999,149.063995 2193.16001,147.792008 2190.808,146.256 C2188.45599,144.719992 2186.53601,142.800012 2185.048,140.496 C2183.55999,138.191988 2182.816,135.312017 2182.816,131.856 L2182.816,131.568 C2182.816,128.399984 2183.43999,125.496013 2184.688,122.856 C2185.93601,120.215987 2187.68799,117.960009 2189.944,116.088 C2192.20001,114.215991 2194.88798,112.776005 2198.008,111.768 C2201.12802,110.759995 2204.51198,110.256 2208.16,110.256 C2212.76802,110.256 2217.42398,110.999993 2222.128,112.488 C2226.83202,113.976007 2231.10398,115.967988 2234.944,118.464 L2229.904,126.816 C2226.44798,124.607989 2222.82402,122.856006 2219.032,121.56 C2215.23998,120.263994 2211.52002,119.616 2207.872,119.616 C2203.45598,119.616 2199.95201,120.64799 2197.36,122.712 C2194.76799,124.77601 2193.472,127.343985 2193.472,130.416 L2193.472,130.704 C2193.472,132.432009 2193.99999,133.943994 2195.056,135.24 C2196.11201,136.536006 2197.52799,137.663995 2199.304,138.624 C2201.08001,139.584005 2203.11999,140.447996 2205.424,141.216 C2207.72801,141.984004 2210.12799,142.751996 2212.624,143.52 C2215.50401,144.384004 2218.35999,145.343995 2221.192,146.4 C2224.02401,147.456005 2226.59199,148.799992 2228.896,150.432 C2231.20001,152.064008 2233.04799,154.031988 2234.44,156.336 C2235.83201,158.640012 2236.528,161.471983 2236.528,164.832 L2236.528,165.12 C2236.528,168.672018 2235.83201,171.815986 2234.44,174.552 C2233.04799,177.288014 2231.17601,179.61599 2228.824,181.536 C2226.47199,183.45601 2223.68802,184.919995 2220.472,185.928 C2217.25598,186.936005 2213.77602,187.44 2210.032,187.44 L2210.032,187.44 Z" id="for-Solopreneurs-" opacity="0.6" fill="#FFFFFF" sketch:type="MSShapeGroup"></path>
            </g>
        </g>
    </g>
</svg>