<?xml version="1.0" encoding="UTF-8" standalone="no"?>
<svg width="1018px" height="191px" viewBox="0 0 1018 191" version="1.1" xmlns="http://www.w3.org/2000/svg" xmlns:xlink="http://www.w3.org/1999/xlink" xmlns:sketch="http://www.bohemiancoding.com/sketch/ns">
    <!-- Generator: Sketch 3.3.3 (12072) - http://www.bohemiancoding.com/sketch -->
    <title>ownersup-logo-white</title>
    <desc>Created with Sketch.</desc>
    <defs></defs>
    <g id="Logos" stroke="none" stroke-width="1" fill="none" fill-rule="evenodd" sketch:type="MSPage">
        <g id="ownersup-logo-white" sketch:type="MSLayerGroup" transform="translate(-92.000000, -32.000000)" fill="#FFFFFF">
            <path d="M848.103167,139.151178 C838.473746,145.983614 826.705912,150 814,150 C800.962584,150 788.912834,145.771301 779.147511,138.610663 L813.499756,82.1247559 L848.103167,139.151178 Z M863.260583,123.483293 C869.416297,114.167008 873,103.002013 873,91 C873,58.4151998 846.5848,32 814,32 C781.4152,32 755,58.4151998 755,91 C755,102.62675 758.363105,113.468004 764.169584,122.604033 L813.187256,41.3747559 L863.260581,123.483296 Z" id="Mask-Copy" sketch:type="MSShapeGroup"></path>
            <path d="M166.4,221.4 C155.599946,221.4 145.666712,219.500019 136.6,215.7 C127.533288,211.899981 119.700033,206.766699 113.1,200.3 C106.499967,193.833301 101.366685,186.233377 97.7,177.5 C94.033315,168.766623 92.2,159.40005 92.2,149.4 L92.2,149 C92.2,138.99995 94.066648,129.633377 97.8,120.9 C101.533352,112.166623 106.699967,104.500033 113.3,97.9 C119.900033,91.299967 127.766621,86.100019 136.9,82.3 C146.033379,78.499981 155.999946,76.6 166.8,76.6 C177.600054,76.6 187.533288,78.499981 196.6,82.3 C205.666712,86.100019 213.499967,91.233301 220.1,97.7 C226.700033,104.166699 231.833315,111.766623 235.5,120.5 C239.166685,129.233377 241,138.59995 241,148.6 L241,149 C241,159.00005 239.133352,168.366623 235.4,177.1 C231.666648,185.833377 226.500033,193.499967 219.9,200.1 C213.299967,206.700033 205.433379,211.899981 196.3,215.7 C187.166621,219.500019 177.200054,221.4 166.4,221.4 L166.4,221.4 Z M166.8,193 C173.066698,193 178.766641,191.866678 183.9,189.6 C189.033359,187.333322 193.433315,184.20002 197.1,180.2 C200.766685,176.19998 203.633323,171.566693 205.7,166.3 C207.766677,161.033307 208.8,155.40003 208.8,149.4 L208.8,149 C208.8,142.99997 207.766677,137.33336 205.7,132 C203.633323,126.66664 200.700019,122.00002 196.9,118 C193.099981,113.99998 188.633359,110.833345 183.5,108.5 C178.366641,106.166655 172.666698,105 166.4,105 C160.266636,105 154.600026,106.133322 149.4,108.4 C144.199974,110.666678 139.766685,113.79998 136.1,117.8 C132.433315,121.80002 129.566677,126.433307 127.5,131.7 C125.433323,136.966693 124.4,142.59997 124.4,148.6 L124.4,149 C124.4,155.00003 125.433323,160.66664 127.5,166 C129.566677,171.33336 132.499981,175.99998 136.3,180 C140.100019,184.00002 144.599974,187.166655 149.8,189.5 C155.000026,191.833345 160.666636,193 166.8,193 L166.8,193 Z M238.4,111.8 L269.2,111.8 L286.4,176.8 L306.6,111.4 L332.8,111.4 L353.2,177 L370.8,111.8 L401,111.8 L367.6,219.8 L340.2,219.8 L319.6,154 L298.6,219.8 L271.4,219.8 L238.4,111.8 Z M403.4,111.8 L433.8,111.8 L433.8,127 C435.533342,124.733322 437.433323,122.566677 439.5,120.5 C441.566677,118.433323 443.866654,116.600008 446.4,115 C448.933346,113.399992 451.733318,112.133338 454.8,111.2 C457.866682,110.266662 461.333314,109.8 465.2,109.8 C476.800058,109.8 485.766635,113.333298 492.1,120.4 C498.433365,127.466702 501.6,137.199938 501.6,149.6 L501.6,219 L471.2,219 L471.2,159.2 C471.2,151.999964 469.600016,146.566685 466.4,142.9 C463.199984,139.233315 458.666696,137.4 452.8,137.4 C446.933304,137.4 442.300017,139.233315 438.9,142.9 C435.499983,146.566685 433.8,151.999964 433.8,159.2 L433.8,219 L403.4,219 L403.4,111.8 Z M561.8,221.4 C553.79996,221.4 546.366701,220.06668 539.5,217.4 C532.633299,214.73332 526.700025,210.933358 521.7,206 C516.699975,201.066642 512.800014,195.200034 510,188.4 C507.199986,181.599966 505.8,174.133374 505.8,166 L505.8,165.6 C505.8,157.999962 507.099987,150.800034 509.7,144 C512.300013,137.199966 515.93331,131.266692 520.6,126.2 C525.26669,121.133308 530.866634,117.133348 537.4,114.2 C543.933366,111.266652 551.066628,109.8 558.8,109.8 C567.733378,109.8 575.466634,111.399984 582,114.6 C588.533366,117.800016 593.966645,122.099973 598.3,127.5 C602.633355,132.900027 605.833323,139.099965 607.9,146.1 C609.966677,153.100035 611,160.399962 611,168 C611,169.200006 610.966667,170.46666 610.9,171.8 C610.833333,173.13334 610.733334,174.533326 610.6,176 L536,176 C537.466674,182.933368 540.499977,188.166649 545.1,191.7 C549.700023,195.233351 555.399966,197 562.2,197 C567.266692,197 571.79998,196.133342 575.8,194.4 C579.80002,192.666658 583.933312,189.866686 588.2,186 L605.6,201.4 C600.533308,207.666698 594.400036,212.566649 587.2,216.1 C579.999964,219.633351 571.533382,221.4 561.8,221.4 L561.8,221.4 Z M581.4,157 C580.466662,150.199966 578.066686,144.700021 574.2,140.5 C570.333314,136.299979 565.200032,134.2 558.8,134.2 C552.399968,134.2 547.233353,136.266646 543.3,140.4 C539.366647,144.533354 536.800006,150.066632 535.6,157 L581.4,157 Z M617.6,111.8 L648,111.8 L648,133.4 C651.066682,125.933296 655.299973,120.033355 660.7,115.7 C666.100027,111.366645 673.266622,109.399998 682.2,109.8 L682.2,141.6 L680.6,141.6 C670.466616,141.6 662.500029,144.666636 656.7,150.8 C650.899971,156.933364 648,166.466602 648,179.4 L648,219 L617.6,219 L617.6,111.8 Z M725.8,221 C718.199962,221 710.433373,219.700013 702.5,217.1 C694.566627,214.499987 687.000036,210.400028 679.8,204.8 L692.8,184.8 C698.666696,189.066688 704.499971,192.266656 710.3,194.4 C716.100029,196.533344 721.533308,197.6 726.6,197.6 C731.000022,197.6 734.233323,196.866674 736.3,195.4 C738.366677,193.933326 739.4,192.000012 739.4,189.6 L739.4,189.2 C739.4,187.599992 738.800006,186.200006 737.6,185 C736.399994,183.799994 734.766677,182.766671 732.7,181.9 C730.633323,181.033329 728.26668,180.200004 725.6,179.4 C722.93332,178.599996 720.133348,177.733338 717.2,176.8 C713.466648,175.733328 709.700019,174.433341 705.9,172.9 C702.099981,171.366659 698.666682,169.366679 695.6,166.9 C692.533318,164.433321 690.033343,161.400018 688.1,157.8 C686.166657,154.199982 685.2,149.800026 685.2,144.6 L685.2,144.2 C685.2,138.733306 686.233323,133.900021 688.3,129.7 C690.366677,125.499979 693.166649,121.933348 696.7,119 C700.233351,116.066652 704.399976,113.866674 709.2,112.4 C714.000024,110.933326 719.06664,110.2 724.4,110.2 C731.200034,110.2 738.099965,111.299989 745.1,113.5 C752.100035,115.700011 758.533304,118.733314 764.4,122.6 L752.8,143.6 C747.46664,140.533318 742.266692,138.100009 737.2,136.3 C732.133308,134.499991 727.666686,133.6 723.8,133.6 C720.066648,133.6 717.266676,134.299993 715.4,135.7 C713.533324,137.100007 712.6,138.866656 712.6,141 L712.6,141.4 C712.6,142.866674 713.199994,144.166661 714.4,145.3 C715.600006,146.433339 717.19999,147.499995 719.2,148.5 C721.20001,149.500005 723.499987,150.433329 726.1,151.3 C728.700013,152.166671 731.466652,153.133328 734.4,154.2 C738.133352,155.400006 741.933314,156.833325 745.8,158.5 C749.666686,160.166675 753.133318,162.199988 756.2,164.6 C759.266682,167.000012 761.79999,169.933316 763.8,173.4 C765.80001,176.866684 766.8,181.066642 766.8,186 L766.8,186.4 C766.8,192.40003 765.766677,197.566645 763.7,201.9 C761.633323,206.233355 758.733352,209.799986 755,212.6 C751.266648,215.400014 746.933358,217.499993 742,218.9 C737.066642,220.300007 731.666696,221 725.8,221 L725.8,221 Z" id="Owners" sketch:type="MSShapeGroup"></path>
            <path d="M935.8,222.2 C927.13329,222.2 919.233369,220.900013 912.1,218.3 C904.966631,215.699987 898.833359,211.833359 893.7,206.7 C888.566641,201.566641 884.600014,195.200038 881.8,187.6 C878.999986,179.999962 877.6,171.266716 877.6,161.4 L877.6,80 L893.4,80 L893.4,160.4 C893.4,175.600076 897.166629,187.266626 904.7,195.4 C912.233371,203.533374 922.733266,207.6 936.2,207.6 C949.133398,207.6 959.399962,203.733372 967,196 C974.600038,188.266628 978.4,176.73341 978.4,161.4 L978.4,80 L994.2,80 L994.2,160.2 C994.2,170.333384 992.800014,179.266628 990,187 C987.199986,194.733372 983.233359,201.199974 978.1,206.4 C972.966641,211.600026 966.833369,215.53332 959.7,218.2 C952.566631,220.86668 944.600044,222.2 935.8,222.2 L935.8,222.2 Z M1005.2,80 L1057.6,80 C1065.46671,80 1072.6333,81.033323 1079.1,83.1 C1085.5667,85.166677 1091.09998,88.099981 1095.7,91.9 C1100.30002,95.700019 1103.83332,100.333306 1106.3,105.8 C1108.76668,111.266694 1110,117.466632 1110,124.4 L1110,124.8 C1110,132.400038 1108.53335,139.033305 1105.6,144.7 C1102.66665,150.366695 1098.70003,155.133314 1093.7,159 C1088.69997,162.866686 1082.8667,165.766657 1076.2,167.7 C1069.5333,169.633343 1062.4667,170.6 1055,170.6 L1021,170.6 L1021,220 L1005.2,220 L1005.2,80 Z M1055.6,156.2 C1061.4667,156.2 1066.73331,155.466674 1071.4,154 C1076.06669,152.533326 1080.09998,150.433347 1083.5,147.7 C1086.90002,144.966653 1089.49999,141.700019 1091.3,137.9 C1093.10001,134.099981 1094,129.933356 1094,125.4 L1094,125 C1094,114.99995 1090.5667,107.433359 1083.7,102.3 C1076.8333,97.166641 1067.73339,94.6 1056.4,94.6 L1021,94.6 L1021,156.2 L1055.6,156.2 Z" id="UP" sketch:type="MSShapeGroup"></path>
        </g>
    </g>
</svg>